#tb 0: 1/22050
#media_type 0: audio
#codec_id 0: pcm_s16le
#sample_rate 0: 22050
#channel_layout 0: 3
0,          0,          0,       28,      112, 0x291d1be4
0,         28,         28,       28,      112, 0xf08d33cc
0,         56,         56,       28,      112, 0x5b1521de
0,         84,         84,       28,      112, 0x57d209f6
0,        112,        112,       28,      112, 0x00000000
0,        140,        140,       28,      112, 0xa15e03fc
0,        168,        168,       28,      112, 0x73a80bf4
0,        196,        196,       28,      112, 0x916e03fc
0,        224,        224,       28,      112, 0xd92603fc
0,        252,        252,       28,      112, 0x097523dc
0,        280,        280,       28,      112, 0xf7be45ba
0,        308,        308,       28,      112, 0x0fed4db2
0,        336,        336,       28,      112, 0x9fb41be4
0,        364,        364,       28,      112, 0x819a0ff0
0,        392,        392,       28,      112, 0xfe7f3fc0
0,        420,        420,       28,      112, 0x281e1de2
0,        448,        448,       28,      112, 0xa76605fa
0,        476,        476,       28,      112, 0x00000000
0,        504,        504,       28,      112, 0xb84705fa
0,        532,        532,       28,      112, 0xdb5c0ff0
0,        560,        560,       28,      112, 0xbc4305fa
0,        588,        588,       28,      112, 0x7c8305fa
0,        616,        616,       28,      112, 0x54ff21de
0,        644,        644,       28,      112, 0xc6c535ca
0,        672,        672,       28,      112, 0xa4123dc2
0,        700,        700,       28,      112, 0x196523dc
0,        728,        728,       28,      112, 0x80ef25da
0,        756,        756,       28,      112, 0xdf742bd4
0,        784,        784,       28,      112, 0xd78a21de
0,        812,        812,       28,      112, 0x191f0df2
